<?xml version="1.0" standalone="no"?>
<!DOCTYPE svg PUBLIC "-//W3C//DTD SVG 20010904//EN"
 "http://www.w3.org/TR/2001/REC-SVG-20010904/DTD/svg10.dtd">
<svg version="1.0" xmlns="http://www.w3.org/2000/svg"
 width="150.000000pt" height="35.000000pt" viewBox="0 0 150.000000 35.000000"
 preserveAspectRatio="xMidYMid meet">

<g transform="translate(0.000000,35.000000) scale(0.100000,-0.100000)"
fill="#000000" stroke="none">
<path d="M90 175 l0 -95 30 0 c27 0 30 3 30 30 0 28 3 30 35 30 43 0 75 29 75
69 0 43 -31 61 -107 61 l-63 0 0 -95z m108 43 c15 -15 -3 -38 -29 -38 -14 0
-19 7 -19 25 0 27 26 35 48 13z"/>
<path d="M1190 249 c0 -15 5 -20 22 -17 34 5 37 38 4 38 -20 0 -26 -5 -26 -21z"/>
<path d="M282 208 c-7 -7 -12 -18 -12 -25 0 -15 36 -18 45 -3 8 13 35 13 35 0
0 -5 -18 -14 -41 -20 -43 -12 -58 -33 -42 -59 7 -12 27 -16 72 -17 l61 -2 0
53 c0 35 -5 59 -16 69 -18 19 -85 21 -102 4z m68 -78 c0 -12 -28 -25 -36 -17
-9 9 6 27 22 27 8 0 14 -5 14 -10z"/>
<path d="M448 213 l-38 -4 3 -62 c3 -58 5 -62 28 -62 21 0 24 4 21 35 -3 42
10 65 32 57 11 -5 16 -19 16 -52 0 -41 2 -45 25 -45 23 0 25 3 25 51 0 87 -8
93 -112 82z"/>
<path d="M598 209 c-22 -12 -24 -39 -3 -39 8 0 24 5 35 12 10 7 22 9 26 6 10
-11 -6 -28 -27 -28 -31 0 -59 -19 -59 -40 0 -27 17 -34 83 -36 l57 -3 0 54 c0
35 -5 59 -16 69 -17 18 -70 21 -96 5z m62 -79 c0 -12 -28 -25 -36 -17 -9 9 6
27 22 27 8 0 14 -5 14 -10z"/>
<path d="M742 208 c-7 -7 -12 -22 -12 -35 0 -18 8 -24 40 -33 22 -6 40 -15 40
-20 0 -13 -23 -13 -37 1 -6 6 -21 9 -34 7 l-24 -3 23 -23 c42 -42 128 -22 120
28 -2 18 -12 27 -40 35 -55 15 -59 28 -5 20 51 -8 56 -5 31 19 -18 19 -85 21
-102 4z"/>
<path d="M895 195 c-30 -30 -31 -54 -4 -89 15 -19 30 -26 54 -26 37 0 75 37
75 72 0 27 -45 68 -75 68 -14 0 -37 -11 -50 -25z m71 -30 c8 -32 -1 -55 -21
-55 -20 0 -29 23 -21 55 8 32 34 32 42 0z"/>
<path d="M1068 213 l-38 -4 0 -65 c0 -61 1 -64 24 -64 23 0 25 5 28 47 2 36 7
49 21 51 14 3 17 -4 17 -47 0 -48 2 -51 25 -51 24 0 25 3 25 58 0 32 -5 63
-12 70 -12 12 -18 12 -90 5z"/>
<path d="M1190 148 c0 -66 1 -69 23 -66 20 3 22 9 25 64 3 59 2 62 -23 66 -25
5 -25 5 -25 -64z"/>
<path d="M1270 200 c-42 -42 -12 -120 48 -120 32 0 72 25 72 46 0 18 -34 18
-50 0 -17 -22 -40 -8 -40 24 0 33 16 48 33 31 13 -13 57 -15 57 -2 0 17 -43
41 -72 41 -16 0 -37 -9 -48 -20z"/>
</g>
</svg>
