<?xml version="1.0" standalone="no"?>
<!DOCTYPE svg PUBLIC "-//W3C//DTD SVG 20010904//EN"
 "http://www.w3.org/TR/2001/REC-SVG-20010904/DTD/svg10.dtd">
<svg version="1.0" xmlns="http://www.w3.org/2000/svg"
 width="150.000000pt" height="33.000000pt" viewBox="0 0 150.000000 33.000000"
 preserveAspectRatio="xMidYMid meet">

<g transform="translate(0.000000,33.000000) scale(0.100000,-0.100000)"
fill="#000000" stroke="none">
<path d="M30 166 l0 -136 30 0 c27 0 30 3 30 30 0 28 3 30 35 30 43 0 90 23
105 49 18 35 12 98 -13 127 -21 24 -32 28 -105 32 l-82 5 0 -137z m130 60 c19
-23 8 -59 -23 -74 -37 -18 -47 -9 -47 44 0 42 1 44 29 44 16 0 34 -7 41 -14z"/>
<path d="M290 165 l0 -135 30 0 c30 0 30 1 30 55 l0 55 45 0 45 0 0 -55 c0
-54 0 -55 30 -55 25 0 30 4 30 25 1 14 1 73 1 133 l1 107 -31 3 c-31 3 -31 3
-31 -47 l0 -51 -45 0 -45 0 0 50 c0 49 -1 50 -30 50 l-30 0 0 -135z"/>
<path d="M580 166 l0 -136 35 0 36 0 -3 133 -3 132 -32 3 -33 3 0 -135z"/>
<path d="M720 165 l0 -135 70 0 70 0 0 30 c0 28 -3 30 -35 30 l-35 0 0 105 0
105 -35 0 -35 0 0 -135z"/>
<path d="M910 165 l0 -135 30 0 30 0 0 135 0 135 -30 0 -30 0 0 -135z"/>
<path d="M1050 166 l0 -136 30 0 c17 0 31 5 31 10 1 6 3 15 4 20 1 6 3 14 4
19 0 4 21 11 46 13 52 6 73 21 91 65 17 40 9 85 -22 114 -19 18 -39 23 -104
27 l-80 5 0 -137z m130 60 c19 -24 8 -59 -24 -75 -24 -11 -30 -11 -37 0 -10
17 -12 73 -2 82 12 12 50 7 63 -7z"/>
<path d="M1325 275 c-35 -34 -34 -86 1 -114 15 -12 32 -21 39 -21 7 0 23 -9
36 -19 l24 -19 -29 -11 c-16 -6 -44 -9 -62 -5 -32 6 -34 5 -34 -24 0 -27 3
-30 38 -34 86 -10 142 22 142 83 0 45 -17 64 -71 80 -54 17 -50 43 9 47 39 3
42 5 42 33 0 29 -1 29 -55 29 -46 0 -60 -4 -80 -25z"/>
</g>
</svg>
