<?xml version="1.0" standalone="no"?>
<!DOCTYPE svg PUBLIC "-//W3C//DTD SVG 20010904//EN"
 "http://www.w3.org/TR/2001/REC-SVG-20010904/DTD/svg10.dtd">
<svg version="1.0" xmlns="http://www.w3.org/2000/svg"
 width="150.000000pt" height="79.000000pt" viewBox="0 0 150.000000 79.000000"
 preserveAspectRatio="xMidYMid meet">

<g transform="translate(0.000000,79.000000) scale(0.100000,-0.100000)"
fill="#000000" stroke="none">
<path d="M990 583 c-166 -8 -371 -43 -518 -88 -120 -36 -137 -44 -124 -57 7
-7 12 -18 12 -25 0 -16 -37 -17 -42 -1 -3 9 -6 9 -11 1 -4 -6 8 -20 28 -32 38
-22 45 -50 19 -75 -30 -30 -94 -10 -94 30 0 19 30 18 45 -3 7 -10 14 -12 18
-6 4 6 -9 23 -28 37 -19 15 -35 33 -35 41 0 20 -95 -36 -137 -80 -67 -71 -29
-124 112 -156 94 -22 352 -16 510 10 152 25 216 41 343 83 88 28 92 31 73 45
-16 11 -21 25 -21 63 0 52 17 80 51 80 23 0 62 -37 54 -50 -9 -15 -35 -12 -41
5 -10 26 -24 5 -24 -36 0 -22 5 -39 11 -39 7 0 9 10 5 25 -6 23 -3 25 25 25
29 0 31 -2 27 -30 l-4 -29 48 26 c61 33 118 95 118 127 0 39 -50 73 -132 90
-77 16 -197 24 -288 19z m-189 -143 c10 -6 19 -17 19 -25 0 -18 -37 -20 -43
-2 -2 6 -8 8 -13 4 -5 -4 6 -19 24 -33 40 -32 43 -69 7 -86 -19 -8 -31 -8 -50
0 -31 14 -35 52 -5 52 11 0 20 -4 20 -10 0 -5 5 -10 10 -10 19 0 10 15 -20 32
-65 37 -15 113 51 78z m-318 -22 c3 -13 9 -44 12 -70 7 -44 6 -48 -14 -48 -17
0 -21 8 -28 53 l-7 52 -9 -52 c-7 -43 -12 -53 -28 -53 -22 0 -24 17 -8 90 10
48 12 50 44 50 26 0 34 -5 38 -22z m117 -23 l6 -40 8 43 c7 40 10 42 42 42
l34 0 0 -70 c0 -63 -2 -70 -20 -70 -17 0 -20 7 -21 43 l-1 42 -11 -43 c-8 -35
-14 -42 -31 -40 -15 2 -23 13 -27 38 l-6 35 -2 -37 c-1 -31 -5 -38 -21 -38
-18 0 -20 7 -20 71 l0 70 33 -3 c29 -3 32 -7 37 -43z m290 -10 c0 -30 5 -55
10 -55 6 0 10 25 10 55 0 48 2 55 20 55 18 0 20 -7 20 -65 0 -60 -2 -66 -25
-77 -19 -8 -31 -8 -50 0 -23 11 -25 17 -25 77 0 58 2 65 20 65 18 0 20 -7 20
-55z m168 18 l10 -38 1 38 c1 30 5 37 21 37 18 0 20 -7 20 -70 l0 -70 -29 0
c-25 0 -30 5 -39 38 l-10 37 -1 -37 c-1 -31 -5 -38 -21 -38 -18 0 -20 7 -20
70 l0 70 29 0 c25 0 30 -5 39 -37z"/>
</g>
</svg>
