<?xml version="1.0" standalone="no"?>
<!DOCTYPE svg PUBLIC "-//W3C//DTD SVG 20010904//EN"
 "http://www.w3.org/TR/2001/REC-SVG-20010904/DTD/svg10.dtd">
<svg version="1.0" xmlns="http://www.w3.org/2000/svg"
 width="150.000000pt" height="21.000000pt" viewBox="0 0 150.000000 21.000000"
 preserveAspectRatio="xMidYMid meet">

<g transform="translate(0.000000,21.000000) scale(0.100000,-0.100000)"
fill="#000000" stroke="none">
<path d="M77 200 c-40 -12 -57 -29 -57 -55 0 -26 39 -45 133 -65 36 -7 57 -16
54 -23 -6 -19 -62 -20 -119 -3 -50 14 -78 9 -78 -15 0 -14 148 -42 186 -34 73
13 101 37 89 75 -6 20 -39 35 -110 50 -74 16 -86 20 -80 31 8 12 81 12 125 -1
27 -8 38 -7 49 5 16 16 17 16 -54 34 -47 13 -98 13 -138 1z"/>
<path d="M965 201 l-30 -6 -3 -93 -3 -92 36 0 35 0 0 80 0 81 57 -3 c47 -2 58
-6 61 -22 6 -27 -10 -37 -57 -38 -22 0 -41 -4 -41 -8 0 -4 22 -26 49 -48 42
-35 57 -42 93 -42 l43 0 -45 40 c-32 28 -40 39 -27 40 10 0 29 11 43 25 20 20
23 29 14 45 -20 37 -141 59 -225 41z"/>
<path d="M1263 203 l-33 -4 0 -95 0 -94 30 0 c28 0 30 3 30 35 l0 35 70 0 c75
0 109 11 128 41 37 58 -79 100 -225 82z m147 -49 c11 -12 11 -17 -1 -29 -15
-14 -34 -18 -86 -16 -30 1 -33 4 -33 31 0 30 1 30 54 30 36 0 58 -5 66 -16z"/>
<path d="M320 105 l0 -95 30 0 c28 0 30 2 30 40 l0 41 68 -3 67 -3 3 -37 c3
-35 6 -38 33 -38 l29 0 0 95 0 95 -30 0 c-28 0 -30 -3 -30 -35 l0 -35 -70 0
-70 0 0 35 c0 32 -2 35 -30 35 l-30 0 0 -95z"/>
<path d="M659 108 c-55 -86 -58 -93 -38 -96 13 -2 27 4 36 17 12 18 25 21 86
21 61 0 74 -3 85 -20 8 -14 23 -20 47 -20 19 0 35 3 35 6 0 3 -26 46 -57 95
-56 86 -59 89 -96 89 -37 0 -39 -3 -98 -92z m121 -15 c0 -8 -15 -13 -40 -13
-22 0 -40 3 -40 8 0 4 9 22 21 41 l21 34 19 -29 c10 -16 19 -35 19 -41z"/>
</g>
</svg>
